<svg xmlns="http://www.w3.org/2000/svg" viewBox="0 0 24 18" shape-rendering="crispEdges"><rect x="8" y="0" width="1" height="1" fill="#ffffff"/><rect x="9" y="0" width="1" height="1" fill="#3f9e46"/><rect x="14" y="0" width="1" height="1" fill="#3f9e46"/><rect x="15" y="0" width="1" height="1" fill="#ffffff"/><rect x="8" y="1" width="2" height="1" fill="#3f9e46"/><rect x="14" y="1" width="2" height="1" fill="#3f9e46"/><rect x="9" y="2" width="1" height="1" fill="#3f9e46"/><rect x="14" y="2" width="1" height="1" fill="#3f9e46"/><rect x="9" y="3" width="1" height="1" fill="#3f9e46"/><rect x="14" y="3" width="1" height="1" fill="#3f9e46"/><rect x="4" y="4" width="1" height="1" fill="#1c4a22"/><rect x="9" y="4" width="1" height="1" fill="#3f9e46"/><rect x="14" y="4" width="1" height="1" fill="#3f9e46"/><rect x="19" y="4" width="1" height="1" fill="#1c4a22"/><rect x="3" y="5" width="1" height="1" fill="#1c4a22"/><rect x="4" y="5" width="1" height="1" fill="#9ede44"/><rect x="5" y="5" width="1" height="1" fill="#1c4a22"/><rect x="9" y="5" width="1" height="1" fill="#3f9e46"/><rect x="14" y="5" width="1" height="1" fill="#3f9e46"/><rect x="18" y="5" width="1" height="1" fill="#1c4a22"/><rect x="19" y="5" width="1" height="1" fill="#9ede44"/><rect x="20" y="5" width="1" height="1" fill="#1c4a22"/><rect x="3" y="6" width="1" height="1" fill="#1c4a22"/><rect x="4" y="6" width="2" height="1" fill="#9ede44"/><rect x="6" y="6" width="1" height="1" fill="#1c4a22"/><rect x="9" y="6" width="1" height="1" fill="#3f9e46"/><rect x="14" y="6" width="1" height="1" fill="#3f9e46"/><rect x="17" y="6" width="1" height="1" fill="#1c4a22"/><rect x="18" y="6" width="2" height="1" fill="#9ede44"/><rect x="20" y="6" width="1" height="1" fill="#1c4a22"/><rect x="2" y="7" width="1" height="1" fill="#1c4a22"/><rect x="3" y="7" width="4" height="1" fill="#9ede44"/><rect x="7" y="7" width="1" height="1" fill="#1c4a22"/><rect x="9" y="7" width="1" height="1" fill="#3f9e46"/><rect x="14" y="7" width="1" height="1" fill="#3f9e46"/><rect x="16" y="7" width="1" height="1" fill="#1c4a22"/><rect x="17" y="7" width="4" height="1" fill="#9ede44"/><rect x="21" y="7" width="1" height="1" fill="#1c4a22"/><rect x="2" y="8" width="1" height="1" fill="#1c4a22"/><rect x="3" y="8" width="5" height="1" fill="#9ede44"/><rect x="8" y="8" width="8" height="1" fill="#1c4a22"/><rect x="16" y="8" width="5" height="1" fill="#9ede44"/><rect x="21" y="8" width="1" height="1" fill="#1c4a22"/><rect x="2" y="9" width="1" height="1" fill="#1c4a22"/><rect x="3" y="9" width="18" height="1" fill="#9ede44"/><rect x="21" y="9" width="1" height="1" fill="#1c4a22"/><rect x="2" y="10" width="1" height="1" fill="#1c4a22"/><rect x="3" y="10" width="18" height="1" fill="#9ede44"/><rect x="21" y="10" width="1" height="1" fill="#1c4a22"/><rect x="2" y="11" width="1" height="1" fill="#1c4a22"/><rect x="3" y="11" width="3" height="1" fill="#9ede44"/><rect x="6" y="11" width="1" height="1" fill="#ffffff"/><rect x="7" y="11" width="1" height="1" fill="#0f2012"/><rect x="8" y="11" width="8" height="1" fill="#9ede44"/><rect x="16" y="11" width="1" height="1" fill="#0f2012"/><rect x="17" y="11" width="1" height="1" fill="#ffffff"/><rect x="18" y="11" width="3" height="1" fill="#9ede44"/><rect x="21" y="11" width="1" height="1" fill="#1c4a22"/><rect x="2" y="12" width="1" height="1" fill="#1c4a22"/><rect x="3" y="12" width="3" height="1" fill="#9ede44"/><rect x="6" y="12" width="2" height="1" fill="#0f2012"/><rect x="8" y="12" width="8" height="1" fill="#9ede44"/><rect x="16" y="12" width="2" height="1" fill="#0f2012"/><rect x="18" y="12" width="3" height="1" fill="#9ede44"/><rect x="21" y="12" width="1" height="1" fill="#1c4a22"/><rect x="2" y="13" width="1" height="1" fill="#1c4a22"/><rect x="3" y="13" width="3" height="1" fill="#9ede44"/><rect x="6" y="13" width="2" height="1" fill="#0f2012"/><rect x="8" y="13" width="8" height="1" fill="#9ede44"/><rect x="16" y="13" width="2" height="1" fill="#0f2012"/><rect x="18" y="13" width="3" height="1" fill="#9ede44"/><rect x="21" y="13" width="1" height="1" fill="#1c4a22"/><rect x="2" y="14" width="1" height="1" fill="#1c4a22"/><rect x="3" y="14" width="1" height="1" fill="#9ede44"/><rect x="4" y="14" width="2" height="1" fill="#f2a0b5"/><rect x="6" y="14" width="3" height="1" fill="#9ede44"/><rect x="9" y="14" width="1" height="1" fill="#1c4a22"/><rect x="10" y="14" width="1" height="1" fill="#9ede44"/><rect x="11" y="14" width="2" height="1" fill="#1c4a22"/><rect x="13" y="14" width="1" height="1" fill="#9ede44"/><rect x="14" y="14" width="1" height="1" fill="#1c4a22"/><rect x="15" y="14" width="3" height="1" fill="#9ede44"/><rect x="18" y="14" width="2" height="1" fill="#f2a0b5"/><rect x="20" y="14" width="1" height="1" fill="#9ede44"/><rect x="21" y="14" width="1" height="1" fill="#1c4a22"/><rect x="2" y="15" width="1" height="1" fill="#1c4a22"/><rect x="3" y="15" width="7" height="1" fill="#9ede44"/><rect x="10" y="15" width="1" height="1" fill="#1c4a22"/><rect x="11" y="15" width="2" height="1" fill="#9ede44"/><rect x="13" y="15" width="1" height="1" fill="#1c4a22"/><rect x="14" y="15" width="7" height="1" fill="#9ede44"/><rect x="21" y="15" width="1" height="1" fill="#1c4a22"/><rect x="2" y="16" width="1" height="1" fill="#1c4a22"/><rect x="3" y="16" width="18" height="1" fill="#9ede44"/><rect x="21" y="16" width="1" height="1" fill="#1c4a22"/><rect x="3" y="17" width="18" height="1" fill="#1c4a22"/></svg>